<?xml version="1.0" encoding="UTF-8" standalone="no"?>
<!-- Generator: Adobe Illustrator 27.5.0, SVG Export Plug-In . SVG Version: 6.00 Build 0)  -->

<svg
   version="1.1"
   x="0px"
   y="0px"
   viewBox="0 0 2200 2200"
   style="enable-background:new 0 0 2200 2200;"
   xml:space="preserve"
   id="svg6"
   sodipodi:docname="mail.svg"
   inkscape:version="1.4 (86a8ad7, 2024-10-11)"
   xmlns:inkscape="http://www.inkscape.org/namespaces/inkscape"
   xmlns:sodipodi="http://sodipodi.sourceforge.net/DTD/sodipodi-0.dtd"
   xmlns="http://www.w3.org/2000/svg"
   xmlns:svg="http://www.w3.org/2000/svg"><defs
   id="defs6" /><sodipodi:namedview
   id="namedview6"
   pagecolor="#505050"
   bordercolor="#eeeeee"
   borderopacity="1"
   inkscape:showpageshadow="0"
   inkscape:pageopacity="0"
   inkscape:pagecheckerboard="0"
   inkscape:deskcolor="#505050"
   showguides="false"
   inkscape:zoom="0.26195092"
   inkscape:cx="1065.085"
   inkscape:cy="1036.4537"
   inkscape:window-width="1920"
   inkscape:window-height="1017"
   inkscape:window-x="-8"
   inkscape:window-y="-8"
   inkscape:window-maximized="1"
   inkscape:current-layer="Objects" />

<g
   id="Objects">
	
	<g
   id="g3"
   transform="matrix(1.841483,0,0,1.8504479,-1803.4367,-1816.4834)">
		<circle
   cx="1576.684"
   cy="1576.0959"
   r="430.13901"
   id="circle2" />
		<path
   style="fill:#ffffff"
   d="m 1826.109,1381.521 c -0.125,-0.135 -0.24,-0.277 -0.372,-0.407 -0.321,-0.318 -0.658,-0.609 -1.004,-0.884 -11.336,-10.203 -26.323,-16.425 -42.74,-16.425 h -410.618 c -16.417,0 -31.405,6.223 -42.741,16.427 -0.346,0.274 -0.682,0.565 -1.003,0.882 -0.132,0.131 -0.247,0.272 -0.372,0.407 -12.212,11.655 -19.843,28.07 -19.843,46.244 v 293.371 c 0,18.172 7.63,34.584 19.839,46.24 0.126,0.137 0.243,0.28 0.377,0.412 0.322,0.318 0.659,0.61 1.005,0.885 11.336,10.202 26.323,16.424 42.738,16.424 h 410.618 c 16.416,0 31.403,-6.222 42.74,-16.425 0.346,-0.274 0.683,-0.566 1.004,-0.883 0.134,-0.132 0.25,-0.275 0.377,-0.412 12.209,-11.655 19.839,-28.068 19.839,-46.24 v -293.371 c -10e-4,-18.175 -7.632,-34.59 -19.844,-46.245 z m -174.522,192.93 164.763,-166.623 c 3.416,5.865 5.384,12.673 5.384,19.936 v 293.371 c 0,7.263 -1.968,14.071 -5.385,19.936 z m 130.406,-186.428 c 5.837,0 11.378,1.275 16.376,3.546 l -172.319,174.264 c 0,0 0,0 -0.01,0.01 0,0 -0.01,0.01 -0.011,0.012 l -30.034,30.373 c -5.142,5.201 -12,8.065 -19.313,8.065 -7.312,0 -14.171,-2.864 -19.313,-8.066 l -30.026,-30.365 c -0.01,-0.01 -0.011,-0.013 -0.017,-0.019 0,0 -0.01,-0.01 -0.012,-0.011 L 1355,1391.569 c 4.998,-2.27 10.539,-3.546 16.376,-3.546 z m -444.974,353.049 c -3.417,-5.865 -5.385,-12.673 -5.385,-19.936 v -293.371 c 0,-7.263 1.968,-14.071 5.384,-19.936 l 164.762,166.623 z m 34.356,19.805 c -5.837,0 -11.378,-1.275 -16.375,-3.545 l 163.811,-165.659 21.338,21.579 c 9.728,9.838 22.703,15.256 36.535,15.256 13.833,0 26.808,-5.418 36.535,-15.255 l 21.339,-21.58 163.811,165.659 c -4.997,2.27 -10.539,3.545 -16.375,3.545 z"
   id="path3" />
	</g>
	
	
</g>
</svg>
